# xmcd
#
# Track frame offsets:
#	150
#	14239
#	27937
#	42840
#	58921
#	75333
#	90964
#	105448
#	119635
#	134110
#
# Disc length: 1981 seconds
#
# Revision: 0
# Processed by: cddbd v1.5.2PL0 Copyright (c) Steve Scherf et al.
# Submitted via: EasyCDDAExtractor 16.0.6.1
#
DISCID=8207bb0a
DTITLE=Συλλογικός δίσκος - Ιστορία ρεμπέτικου και λαϊκού 02-5
DYEAR=2007
DGENRE=Ποικίλη
TTITLE0=Βαμβακάρης Μάρκος - Αντιλαλούν οι φυλακές [Μ. Βαμβακάρης]
TTITLE1=Βαμβακάρης Μάρκος - Σύρος [Μ. Βαμβακάρης]
TTITLE2=Περπινιάδης Στελλάκης - Η γάτα [Σ. Περπινιάδης-ίδιος κ Ν. Μάθεσης]
TTITLE3=Βαμβακάρης Μάρκος - Το διαζύγιο [Μ. Βαμβακάρης]
TTITLE4=Βαμβακάρης Μάρκος - Όσοι έχουνε πολλά λεφτά [Μ. Βαμβακάρης]
TTITLE5=Αμπατζή Ρίτα - Καλογριά [Βαγγ. Παπάζογλου]
TTITLE6=Εσκενάζυ Ρόζα - Μάς κόψαν τον τηλέγραφο [Β. Μποφιλιός ''Ταμπακίδης'']
TTITLE7=Βαμβακάρης Μάρκος-Ρούκουνας Κώστας - Μαύρα μάτια, μαύρα φρύδια [Μ. Βαμ
TTITLE7=βακάρης]
TTITLE8=Αμπατζή Ρίτα - Τουρκολιμανιώτισσα γλυκειά [Παν. Τούντας]
TTITLE9=Μηττάκη Γεωργία - Σ' ένα τεκέ σκαρώσανε [Β. Τσιτσάνης-Δ. Περδικόπουλος
TTITLE9=]
EXTD=
EXTT0=
EXTT1=
EXTT2=
EXTT3=
EXTT4=
EXTT5=
EXTT6=
EXTT7=
EXTT8=
EXTT9=
PLAYORDER=
